# AST/ASF file generated using VICON BodyLanguage
# -----------------------------------------------
:version 1.10
:name VICON
:units
  mass 1.0
  length 0.45
  angle deg
:documentation
   .ast/.asf automatically generated from VICON data using
   VICON BodyBuilder and BodyLanguage model FoxedUp or BRILLIANT.MOD
:root
   order TX TY TZ RX RY RZ
   axis XYZ
   position 0 0 0  
   orientation 0 0 0 
:bonedata
  begin
     id 1 
     name lhipjoint
     direction 0.610259 -0.730986 0.305356 
     length 2.50941 
     axis 0 0 0  XYZ
  end
  begin
     id 2 
     name lfemur
     direction 0.34202 -0.939693 0  
     length 7.48822  
     axis 0 0 20  XYZ
    dof rx ry rz
    limits (-160.0 20.0)
           (-70.0 70.0)
           (-60.0 70.0)
  end
  begin
     id 3 
     name ltibia
     direction 0.34202 -0.939693 0   
     length 7.60141   
     axis 0 0 20   XYZ
    dof rx
    limits (-10.0 170.0)
  end
  begin
     id 4 
     name lfoot
     direction 0.0673488 -0.185039 0.980421   
     length 2.04049   
     axis -90 7.62852e-016 20   XYZ
    dof rx rz
    limits (-45.0 90.0)
           (-70.0 20.0)
  end
  begin
     id 5 
     name ltoes
     direction 1.5356e-011 -4.21729e-011 1   
     length 1.02897   
     axis -90 7.62852e-016 20   XYZ
    dof rx
    limits (-90.0 20.0)
  end
  begin
     id 6 
     name rhipjoint
     direction -0.57612 -0.754205 0.315056   
     length 2.43216  
     axis 0 0 0  XYZ 
  end
  begin
     id 7 
     name rfemur
     direction -0.34202 -0.939693 0   
     length 7.42799   
     axis 0 0 -20   XYZ
    dof rx ry rz
    limits (-160.0 20.0)
           (-70.0 70.0)
           (-70.0 60.0)
  end
  begin
     id 8 
     name rtibia
     direction -0.34202 -0.939693 0   
     length 7.69484   
     axis 0 0 -20   XYZ
    dof rx
    limits (-10.0 170.0)
 end
 begin
     id 9 
     name rfoot
     direction -0.111837 -0.30727 0.945028   
     length 2.15769  
     axis -90 -7.62852e-016 -20   XYZ
    dof rx rz
    limits (-45.0 90.0)
           (-20.0 70.0)
  end
  begin
     id 10 
     name rtoes
     direction -1.53539e-011 -4.21878e-011 1   
     length 1.07391   
     axis -90 -7.62852e-016 -20   XYZ
    dof rx
    limits (-90.0 20.0)
  end
  begin
     id 11 
     name lowerback
     direction 0.00552624 0.990109 -0.140195   
     length 2.12403   
     axis 0 0 0   XYZ
    dof rx ry rz
    limits (-20.0 45.0)
           (-30.0 30.0)
           (-30.0 30.0)
  end
  begin
     id 12 
     name upperback
     direction 0.00361898 0.999976 -0.00584723   
     length 2.13232   
     axis 0 0 0   XYZ
    dof rx ry rz
    limits (-20.0 45.0)
           (-30.0 30.0)
           (-30.0 30.0)
  end
  begin
     id 13 
     name thorax
     direction -0.000331275 0.998253 0.0590847   
     length 2.17688   
     axis 0 0 0   XYZ
    dof rx ry rz
    limits (-20.0 45.0)
           (-30.0 30.0)
           (-30.0 30.0)
  end
  begin
     id 14 
     name lowerneck
     direction -0.0561561 0.979832 0.19177   
     length 1.64159   
     axis 0 0 0   XYZ
    dof rx ry rz
    limits (-20.0 45.0)
           (-30.0 30.0)
           (-30.0 30.0)
  end
  begin
     id 15 
     name upperneck
     direction 0.0827153 0.979385 -0.184293   
     length 1.68939   
     axis 0 0 0   XYZ
    dof rx ry rz
    limits (-20.0 45.0)
           (-30.0 30.0)
           (-30.0 30.0)
  end
  begin
     id 16
     name head
     direction 0.0278583 0.995936 -0.0856488  
     length 1.70207  
     axis 0 0 0   XYZ
    dof rx ry rz
    limits (-20.0 45.0)
           (-30.0 30.0)
           (-30.0 30.0)
  end
  begin
     id 17 
     name lclavicle
     direction 0.950993 0.301131 -0.0702275  
     length 3.41652  
     axis 0 0 0   XYZ
    dof ry rz
    limits (-20.0 10.0)
           (0.0 20.0)
  end
  begin
     id 18 
     name lhumerus
     direction 1 -4.48981e-011 -3.9662e-029   
     length 5.32955   
     axis 180 -30 -90   XYZ
    dof rx ry rz
    limits (-60.0 90.0)
           (-90.0 90.0)
           (-90.0 90.0)
  end
  begin
     id 19
     name lradius
     direction 1 -4.48925e-011 -9.0549e-027   
     length 3.69232   
     axis 180 -30 -90   XYZ
    dof rx
    limits (-10.0 170.0)
  end
  begin
     id 20
     name lwrist
     direction 1 -4.49007e-011 -1.49005e-026   
     length 1.84616   
     axis 9.0955e-015 90 90   XYZ
    dof ry
    limits (-180.0 0.0)
 end
  begin
     id 21 
     name lhand
     direction 1 -4.49016e-011 -2.98023e-026   
     length 0.536598   
     axis 1.90115e-014 90 90   XYZ
    dof rx rz
    limits (-90.0 90.0)
           (-45.0 45.0)
  end
  begin
     id 22 
     name lfingers
     direction 1 -4.48924e-011 -5.9578e-026   
     length 0.432619   
     axis 3.80223e-014 90 90   XYZ
    dof rx
    limits (0.0 90.0)
  end
  begin
     id 23
     name lthumb
     direction 0.707107 -6.34947e-011 0.707107   
     length 0.621157   
     axis -90 45 -3.84942e-014   XYZ
    dof rx rz
    limits (-45.0 45.0)
           (-45.0 45.0)
  end
  begin
     id 24 
     name rclavicle
     direction -0.955495 0.276497 -0.102848   
     length 3.36357  
     axis 0 0 0   XYZ 
    dof ry rz
    limits (-10.0 20.0)
           (-20.0 0.0)
  end
  begin
     id 25 
     name rhumerus
     direction -1 -4.48961e-011 3.30983e-027  
     length 5.23431   
     axis 180 30 90   XYZ
    dof rx ry rz
    limits (-90.0 60.0)
           (-90.0 90.0)
           (-90.0 90.0)
  end
  begin
     id 26 
     name rradius
     direction -1 -4.48965e-011 -6.63263e-027   
     length 3.55301   
     axis 180 30 90   XYZ
    dof rx
    limits (-10.0 170.0)
  end
  begin
     id 27 
     name rwrist
     direction -1 -4.48942e-011 -1.48958e-026   
     length 1.77651   
     axis 9.0955e-015 -90 -90   XYZ
    dof ry
    limits (-180.0 0.0)
  end
  begin
     id 28
     name rhand
     direction -1 -4.48977e-011 -2.97966e-026   
     length 0.772522   
     axis 1.90115e-014 -90 -90   XYZ
    dof rx rz
    limits (-90.0 90.0)
           (-45.0 45.0)
  end
  begin
     id 29
     name rfingers
     direction -1 -4.49135e-011 -5.96389e-026   
     length 0.622827   
     axis 3.80223e-014 -90 -90   XYZ
    dof rx
    limits (0.0 90.0)
  end
  begin
     id 30
     name rthumb
     direction -0.707107 -6.34969e-011 0.707107   
     length 0.894259   
     axis -90 -45 3.84942e-014   XYZ
    dof rx rz
    limits (-45.0 45.0)
           (-45.0 45.0)
  end
:hierarchy
  begin
    root lhipjoint rhipjoint lowerback
    lhipjoint lfemur
    lfemur ltibia
    ltibia lfoot
    lfoot ltoes
    rhipjoint rfemur
    rfemur rtibia
    rtibia rfoot
    rfoot rtoes
    lowerback upperback
    upperback thorax
    thorax lowerneck lclavicle rclavicle
    lowerneck upperneck
    upperneck head
    lclavicle lhumerus
    lhumerus lradius
    lradius lwrist
    lwrist lhand lthumb
    lhand lfingers
    rclavicle rhumerus
    rhumerus rradius
    rradius rwrist
    rwrist rhand rthumb
    rhand rfingers
  end

#!OML:ASF F:\VICON\USERDATA\INSTALL\rory3\rory3.ASF
:FULLY-SPECIFIED
:DEGREES
65
root -9.319 18.3265 -8.74782 177.733 -4.91123 177.954
lowerback 12.4232 -1.88378 0.460705
upperback 2.11784 -2.63638 3.8586
thorax -4.57069 -1.45211 4.2304
lowerneck 7.87816 -24.6025 -16.5816
upperneck 30.5053 -34.8106 15.3078
head 15.6051 -15.1203 3.64564
rclavicle 8.15017e-015 -5.56597e-014
rhumerus -22.2868 -9.61817 -81.878
rradius 30.8912
rwrist 4.34887
rhand -17.2278 7.91541
rfingers 7.12502
rthumb 9.01557 -21.8719
lclavicle 8.15017e-015 -5.56597e-014
lhumerus -39.5874 7.60611 86.5332
lradius 32.4458
lwrist -2.42639
lhand -15.6609 28.3875
lfingers 7.12502
lthumb 10.5272 58.1039
rfemur -5.05697 -0.381527 21.1058
rtibia 32.013
rfoot -6.47549 -9.9985
rtoes -5.11776
lfemur -10.8418 -2.41068 -20.6658
ltibia 44.4993
lfoot -6.69362 -1.3713
ltoes -15.6796
66
root -9.32527 18.3346 -8.65476 177.791 -4.8007 177.767
lowerback 12.3533 -2.04417 0.300178
upperback 1.96886 -2.8542 3.88657
thorax -4.66526 -1.54932 4.38717
lowerneck 7.93442 -24.6198 -16.5031
upperneck 30.5973 -34.7808 15.1036
head 15.5564 -15.1144 3.58314
rclavicle 8.34896e-015 -3.65764e-014
rhumerus -23.1383 -9.63138 -81.6564
rradius 30.6649
rwrist 4.45336
rhand -17.1739 8.00018
rfingers 7.12502
rthumb 9.06754 -21.7849
lclavicle 8.34896e-015 -3.65764e-014
lhumerus -39.6553 7.26939 86.4516
lradius 32.8012
lwrist -2.45256
lhand -16.3084 27.6147
lfingers 7.12502
lthumb 9.90258 57.3618
rfemur -5.5544 -0.259555 20.8641
rtibia 32.2018
rfoot -6.52777 -10.0394
rtoes -4.95532
lfemur -10.0111 -1.95521 -20.7793
ltibia 44.8896
lfoot -6.04244 -1.79223
ltoes -16.4493
67
root -9.33069 18.3378 -8.56344 177.786 -4.70189 177.583
lowerback 12.2027 -2.19401 0.136821
upperback 1.97171 -3.07781 3.89968
thorax -4.55421 -1.6588 4.51892
lowerneck 7.79248 -24.7097 -16.4223
upperneck 30.6693 -34.9091 15.0183
head 15.6051 -15.1586 3.49273
rclavicle 2.64384e-014 5.08889e-014
rhumerus -23.8343 -9.67785 -81.4183
rradius 30.4873
rwrist 4.71784
rhand -17.1158 8.85877
rfingers 7.12502
rthumb 9.12357 -20.9239
lclavicle 2.64384e-014 5.08889e-014
lhumerus -39.4843 6.90122 86.3827
lradius 33.2361
lwrist -2.1408
lhand -15.8845 28.058
lfingers 7.12502
lthumb 10.3116 57.7852
rfemur -5.95086 0.0125191 20.6546
rtibia 32.3472
rfoot -6.43123 -10.1953
rtoes -4.86942
lfemur -9.06627 -1.40237 -20.8661
ltibia 45.1712
lfoot -5.40203 -2.22176
ltoes -18.1927
68
root -9.33896 18.3388 -8.4717 177.78 -4.66146 177.391
lowerback 12.0434 -2.3651 0.00978732
upperback 1.94687 -3.32155 3.90684
thorax -4.46686 -1.77732 4.62624
lowerneck 7.89063 -24.7369 -16.5364
upperneck 30.6493 -34.9817 15.0887
head 15.64 -15.2053 3.51728
rclavicle -1.17283e-014 7.63333e-014
rhumerus -24.682 -9.69884 -81.1615
rradius 30.5097
rwrist 4.81284
rhand -17.0352 9.5692
rfingers 7.12502
rthumb 9.20137 -20.21
lclavicle -1.17283e-014 7.63333e-014
lhumerus -39.231 6.50209 86.3398
lradius 33.5591
lwrist -1.78415
lhand -15.7761 28.5769
lfingers 7.12502
lthumb 10.4161 58.2989
rfemur -6.31883 0.130138 20.4035
rtibia 32.464
rfoot -6.35462 -10.2624
rtoes -4.75012
lfemur -8.10051 -0.938825 -20.9704
ltibia 45.3513
lfoot -4.71635 -2.56938
ltoes -19.2672
69
root -9.34472 18.3424 -8.37752 177.856 -4.62015 177.321
lowerback 11.8811 -2.51833 -0.0298696
upperback 1.85641 -3.52477 3.97391
thorax -4.45002 -1.87483 4.74337
lowerneck 8.06591 -24.7723 -16.6679
upperneck 30.5702 -35.0588 15.1533
head 15.6333 -15.267 3.54926
rclavicle 3.37934e-015 -4.92986e-014
rhumerus -25.4948 -9.61622 -80.8978
rradius 30.4251
rwrist 4.33548
rhand -17.1354 9.44042
rfingers 7.12502
rthumb 9.10466 -20.3431
lclavicle 3.37934e-015 -4.92986e-014
lhumerus -38.975 6.19073 86.2418
lradius 33.81
lwrist -1.84674
lhand -16.3951 28.2326
lfingers 7.12502
lthumb 9.81898 57.9836
rfemur -6.77276 0.173069 20.2945
rtibia 32.5534
rfoot -6.28427 -10.3269
rtoes -4.9709
lfemur -7.23216 -0.53022 -20.8972
ltibia 45.425
lfoot -3.9099 -3.01601
ltoes -19.3328
70
root -9.35194 18.3422 -8.28129 177.92 -4.57902 177.298
lowerback 11.7158 -2.68027 -0.00501321
upperback 1.78343 -3.73532 4.04872
thorax -4.41517 -1.9789 4.83146
lowerneck 8.14512 -24.8177 -16.8201
upperneck 30.6349 -35.1329 15.0983
head 15.6875 -15.3214 3.52699
rclavicle 6.95746e-015 2.8625e-014
rhumerus -26.2315 -9.56606 -80.6404
rradius 30.1461
rwrist 3.79452
rhand -17.2677 8.51252
rfingers 7.12502
rthumb 8.97702 -21.2765
lclavicle 6.95746e-015 2.8625e-014
lhumerus -38.6362 6.05918 86.0472
lradius 33.9484
lwrist -2.07236
lhand -16.8527 28.076
lfingers 7.12502
lthumb 9.37752 57.8474
rfemur -7.17073 0.0912556 20.2264
rtibia 32.6059
rfoot -6.22902 -10.3112
rtoes -5.81498
lfemur -6.32976 -0.102824 -20.7525
ltibia 45.3909
lfoot -3.20335 -3.46882
ltoes -19.4854
71
root -9.35984 18.3417 -8.19048 177.889 -4.61923 177.134
lowerback 11.6171 -2.86615 -0.139109
upperback 1.70692 -3.99333 4.0707
thorax -4.40972 -2.10155 4.96433
lowerneck 8.26858 -24.8325 -16.8884
upperneck 30.6752 -35.1454 15.0333
head 15.6844 -15.3448 3.52042
rclavicle -7.95139e-015 -1.74931e-014
rhumerus -27.0727 -9.65178 -80.3639
rradius 29.8683
rwrist 3.34642
rhand -17.1809 7.90577
rfingers 7.12502
rthumb 9.06075 -21.8796
lclavicle -7.95139e-015 -1.74931e-014
lhumerus -38.3797 5.9946 85.7904
lradius 34.121
lwrist -2.27868
lhand -16.6139 28.5677
lfingers 7.12502
lthumb 9.60792 58.3286
rfemur -7.38235 -0.0864345 20.003
rtibia 32.6203
rfoot -6.2219 -10.2842
rtoes -6.29839
lfemur -5.26034 0.28658 -20.7411
ltibia 45.2413
lfoot -2.6759 -4.16665
ltoes -20.0228
72
root -9.36343 18.3384 -8.10137 177.814 -4.63973 176.974
lowerback 11.4525 -3.0278 -0.319374
upperback 1.73355 -4.23539 4.06606
thorax -4.2582 -2.2221 5.08106
lowerneck 8.28742 -24.8605 -16.7885
upperneck 30.6275 -35.1856 15.0279
head 15.6404 -15.3626 3.50387
rclavicle 1.96797e-014 -2.70347e-014
rhumerus -27.8553 -9.80359 -80.1344
rradius 29.8329
rwrist 3.25783
rhand -16.9107 7.55103
rfingers 7.12502
rthumb 9.32147 -22.2229
lclavicle 1.96797e-014 -2.70347e-014
lhumerus -37.9284 5.84231 85.4965
lradius 34.2808
lwrist -2.32716
lhand -16.2571 28.9701
lfingers 7.12502
lthumb 9.95211 58.7148
rfemur -7.57164 -0.0801388 19.8073
rtibia 32.5975
rfoot -6.32355 -10.4311
rtoes -5.78978
lfemur -4.12387 0.72385 -20.6886
ltibia 44.9838
lfoot -2.27132 -5.11264
ltoes -20.5453
73
root -9.37053 18.3327 -8.00811 177.843 -4.65593 176.923
lowerback 11.2065 -3.17111 -0.328032
upperback 1.7211 -4.42935 4.07653
thorax -4.11702 -2.32001 5.1044
lowerneck 8.30281 -24.9453 -16.7102
upperneck 30.6712 -35.2891 14.9278
head 15.6351 -15.409 3.4367
rclavicle 6.16232e-015 -7.15625e-014
rhumerus -28.6574 -9.96161 -79.8461
rradius 29.8662
rwrist 3.40627
rhand -16.824 6.76253
rfingers 7.12502
rthumb 9.40517 -23.0076
lclavicle 6.16232e-015 -7.15625e-014
lhumerus -37.4521 5.44132 85.2905
lradius 34.414
lwrist -2.1772
lhand -16.2411 29.0534
lfingers 7.12502
lthumb 9.96759 58.7974
rfemur -7.94266 -0.0845617 19.7022
rtibia 32.5848
rfoot -6.4886 -10.5496
rtoes -4.55879
lfemur -3.07617 1.11019 -20.5298
ltibia 44.5977
lfoot -1.95002 -6.35878
ltoes -20.3714
